<?xml version="1.0" encoding="utf-8"?>
<!-- Generator: Adobe Illustrator 18.0.0, SVG Export Plug-In . SVG Version: 6.00 Build 0)  -->
<!DOCTYPE svg PUBLIC "-//W3C//DTD SVG 1.1//EN" "http://www.w3.org/Graphics/SVG/1.1/DTD/svg11.dtd">
<svg version="1.1" id="Layer_1" xmlns="http://www.w3.org/2000/svg" xmlns:xlink="http://www.w3.org/1999/xlink" x="0px" y="0px"
	 viewBox="0 0 104 104" enable-background="new 0 0 104 104" xml:space="preserve">
<title>icn_conversations</title>
<defs>
	<filter id="Adobe_OpacityMaskFilter" filterUnits="userSpaceOnUse" x="-2" y="-2" width="108" height="108">
		<feColorMatrix  type="matrix" values="1 0 0 0 0  0 1 0 0 0  0 0 1 0 0  0 0 0 1 0"/>
	</filter>
</defs>
<mask maskUnits="userSpaceOnUse" x="-2" y="-2" width="108" height="108" id="b">
	<g filter="url(#Adobe_OpacityMaskFilter)">
		<circle id="a" fill="#FFFFFF" cx="52" cy="52" r="52"/>
	</g>
</mask>
<g mask="url(#b)">
	<g>
		<circle id="a_1_" fill="none" stroke="#62BED5" stroke-width="4" cx="52" cy="52" r="52"/>
	</g>
</g>
<g>
	<path fill="#62BED5" d="M47.6,76.2c0.2,0.1,0.4,0.1,0.7,0.1c0.6,0,1.1-0.2,1.5-0.8l18.6-27.3c0.4-0.5,0.4-1.3,0.1-1.8
		c-0.3-0.6-0.9-1-1.6-1l-11.5-0.1l3.3-18c0.2-0.8-0.3-1.6-1-2c-0.7-0.4-1.6-0.1-2.1,0.5L35.8,51.1c-0.4,0.5-0.5,1.3-0.2,1.9
		c0.3,0.6,0.9,1,1.6,1l12.8,0.1l-3.4,20.1C46.3,75.1,46.8,75.9,47.6,76.2z M40.8,50.5l13-16.6l-2.4,13c-0.1,0.5,0.1,1.1,0.4,1.5
		c0.4,0.4,0.8,0.7,1.3,0.7l10.3,0L51.3,66.9l2.4-14.2c0.1-0.5-0.1-1.1-0.4-1.5c-0.3-0.4-0.8-0.6-1.3-0.6L40.8,50.5L40.8,50.5z"/>
</g>
</svg>
