<?xml version="1.0" encoding="utf-8"?>
<!-- Generator: Adobe Illustrator 18.0.0, SVG Export Plug-In . SVG Version: 6.00 Build 0)  -->
<!DOCTYPE svg PUBLIC "-//W3C//DTD SVG 1.1//EN" "http://www.w3.org/Graphics/SVG/1.1/DTD/svg11.dtd">
<svg version="1.1" id="Layer_1" xmlns="http://www.w3.org/2000/svg" xmlns:xlink="http://www.w3.org/1999/xlink" x="0px" y="0px"
	 viewBox="0 0 100 100" enable-background="new 0 0 100 100" xml:space="preserve">
<g>
	<path fill="#2980BA" d="M49.5,4C23.9,4,3,24.8,3,50.4C3,76,23.8,96.8,49.5,96.8c25.6,0,46.4-20.8,46.4-46.4
		C95.9,24.8,75.1,4,49.5,4L49.5,4z M49.5,90.3c-22,0-39.9-17.9-39.9-39.9c0-22,17.9-39.9,39.9-39.9s39.9,17.9,39.9,39.9
		C89.4,72.4,71.5,90.3,49.5,90.3L49.5,90.3z M49.5,90.3"/>
	<path fill="#2980BA" d="M70.8,46.7H52.8V28.6c0-1.8-1.4-3.3-3.3-3.3c-1.8,0-3.3,1.4-3.3,3.3v18.1H28.1c-1.8,0-3.3,1.4-3.3,3.3
		c0,1.8,1.4,3.3,3.3,3.3h18.1v18.1c0,1.8,1.4,3.3,3.3,3.3c1.8,0,3.3-1.4,3.3-3.3V53.2h18.1c1.8,0,3.3-1.4,3.3-3.3
		C74.1,48.1,72.7,46.7,70.8,46.7L70.8,46.7z M70.8,46.7"/>
</g>
</svg>
