<?xml version="1.0" encoding="utf-8"?>
<!-- Generator: Adobe Illustrator 18.0.0, SVG Export Plug-In . SVG Version: 6.00 Build 0)  -->
<!DOCTYPE svg PUBLIC "-//W3C//DTD SVG 1.1//EN" "http://www.w3.org/Graphics/SVG/1.1/DTD/svg11.dtd">
<svg version="1.1" id="Layer_1" xmlns="http://www.w3.org/2000/svg" xmlns:xlink="http://www.w3.org/1999/xlink" x="0px" y="0px"
	 viewBox="231 321 150 150" enable-background="new 231 321 150 150" xml:space="preserve">
<g>
	<path fill="#2980BA" d="M305.9,466.1c38.7,0,70.2-31.4,70.2-70.1s-31.4-70.1-70.2-70.1c-38.7,0-70.1,31.4-70.1,70.1
		S267.3,466.1,305.9,466.1L305.9,466.1z M305.9,335.7c33.2,0,60.3,27,60.3,60.3s-27,60.3-60.3,60.3s-60.3-27-60.3-60.3
		S272.7,335.7,305.9,335.7L305.9,335.7z"/>
	<path fill="#2980BA" d="M273.8,401.6h27.2v27.3c0,2.7,2.1,5,5,5c2.7,0,5-2.1,5-5v-27.3h27.3c2.7,0,5-2.1,5-5c0-2.7-2.1-5-5-5h-27.3
		v-27.3c0-2.7-2.1-5-5-5c-2.7,0-5,2.1-5,5v27.5h-27.3c-2.7,0-5,2.1-5,5C268.8,399.5,270.9,401.6,273.8,401.6L273.8,401.6z"/>
</g>
</svg>
