<?xml version="1.0" encoding="utf-8"?>
<!-- Generator: Adobe Illustrator 18.0.0, SVG Export Plug-In . SVG Version: 6.00 Build 0)  -->
<!DOCTYPE svg PUBLIC "-//W3C//DTD SVG 1.1//EN" "http://www.w3.org/Graphics/SVG/1.1/DTD/svg11.dtd">
<svg version="1.1" id="Layer_1" xmlns="http://www.w3.org/2000/svg" xmlns:xlink="http://www.w3.org/1999/xlink" x="0px" y="0px"
	 viewBox="231 321 150 150" enable-background="new 231 321 150 150" xml:space="preserve">
<g>
	<g>
		<path fill="#2980B9" d="M306,466.6c38.9,0,70.6-31.6,70.6-70.6s-31.7-70.6-70.6-70.6s-70.6,31.7-70.6,70.6S267.1,466.6,306,466.6z
			 M306,335.3c33.5,0,60.7,27.2,60.7,60.7s-27.2,60.7-60.7,60.7s-60.7-27.2-60.7-60.7S272.5,335.3,306,335.3z"/>
		<path fill="#2980B9" d="M279.5,421.8c1,1,2.2,1.5,3.5,1.5c1.3,0,2.6-0.5,3.5-1.5l19.5-19.5l19.5,19.5c1,1,2.2,1.5,3.5,1.5
			c1.4,0,2.6-0.5,3.5-1.5c1.9-1.9,1.9-5.1,0-7l-19.5-19.5l19.5-19.5c1.9-1.9,1.9-5.1,0-7c-1.9-1.9-5.1-1.9-7,0L306,388.2l-19.5-19.5
			c-1.9-1.9-5.1-1.9-7,0c-1.9,1.9-1.9,5.1,0,7l19.5,19.5l-19.5,19.5C277.5,416.7,277.5,419.8,279.5,421.8z"/>
	</g>
</g>
</svg>
