<?xml version="1.0" encoding="utf-8"?>
<!-- Generator: Adobe Illustrator 18.0.0, SVG Export Plug-In . SVG Version: 6.00 Build 0)  -->
<!DOCTYPE svg PUBLIC "-//W3C//DTD SVG 1.1//EN" "http://www.w3.org/Graphics/SVG/1.1/DTD/svg11.dtd">
<svg version="1.1" id="Layer_1" xmlns="http://www.w3.org/2000/svg" xmlns:xlink="http://www.w3.org/1999/xlink" x="0px" y="0px"
	 viewBox="30.4 120.4 551.3 551.3" enable-background="new 30.4 120.4 551.3 551.3" xml:space="preserve">
<g>
	<g>
		<path fill="#2980B9" d="M306,671.6c151.8,0,275.6-123.3,275.6-275.6S457.8,120.4,306,120.4S30.4,244.2,30.4,396
			S154.2,671.6,306,671.6z M306,159.3c130.5,0,236.7,106.3,236.7,236.7S436.5,632.7,306,632.7S69.3,526.5,69.3,396
			S175.5,159.3,306,159.3z"/>
		<path fill="#2980B9" d="M202.6,496.6c3.8,3.8,8.5,5.7,13.8,5.7c5.2,0,10-1.9,13.8-5.7l75.9-75.9l75.9,75.9
			c3.8,3.8,8.5,5.7,13.8,5.7s10-1.9,13.8-5.7c7.6-7.6,7.6-19.9,0-27.5l-75.9-75.9l75.9-75.9c7.6-7.6,7.6-19.9,0-27.5
			c-7.6-7.6-19.9-7.6-27.5,0L306,365.6l-75.9-75.9c-7.6-7.6-19.9-7.6-27.5,0c-7.6,7.6-7.6,19.9,0,27.5l75.9,75.9l-75.9,75.9
			C195,476.7,195,489,202.6,496.6z"/>
	</g>
</g>
</svg>
