<?xml version="1.0" encoding="utf-8"?>
<!-- Generator: Adobe Illustrator 18.0.0, SVG Export Plug-In . SVG Version: 6.00 Build 0)  -->
<!DOCTYPE svg PUBLIC "-//W3C//DTD SVG 1.1//EN" "http://www.w3.org/Graphics/SVG/1.1/DTD/svg11.dtd">
<svg version="1.1" id="Layer_1" xmlns="http://www.w3.org/2000/svg" xmlns:xlink="http://www.w3.org/1999/xlink" x="0px" y="0px"
	 viewBox="231 321 150 150" enable-background="new 231 321 150 150" xml:space="preserve">
<g>
	<path fill="#28B463" d="M300.8,388.1c2-2,2-5.3,0-7.3c-2-2-5.3-2-7.3,0l-27.3,27.3c-4.7,4.7-7.2,10.7-7.2,17.2s2.5,12.6,7.2,17.2
		c9.6,9.6,25,9.6,34.4,0l61.6-61.6c6.4-6.4,9.9-15,9.9-24s-3.5-17.6-9.9-24c-13.3-13.3-34.8-13.3-48.1,0l-61.5,61.5
		c-8.3,8.3-12.8,19.2-12.8,30.9c0,11.7,4.5,22.8,12.8,30.9c8.3,8.3,19.2,12.8,30.9,12.8c11.7,0,22.8-4.5,30.9-12.8l27.3-27.3
		c2-2,2-5.3,0-7.3c-2-2-5.3-2-7.3,0L307.2,449c-6.3,6.3-14.7,9.8-23.6,9.8s-17.4-3.5-23.6-9.8c-6.3-6.3-9.8-14.7-9.8-23.6
		c0-8.9,3.5-17.4,9.8-23.6l61.5-61.5c4.5-4.5,10.4-6.9,16.7-6.9s12.3,2.5,16.7,6.9c4.5,4.5,6.9,10.4,6.9,16.7s-2.5,12.3-6.9,16.7
		l-61.6,61.6c-5.4,5.4-14.3,5.4-19.9,0c-2.6-2.6-4.2-6.1-4.2-9.9s1.5-7.3,4.2-9.9L300.8,388.1L300.8,388.1z"/>
</g>
</svg>
