<?xml version="1.0" encoding="utf-8"?>
<!-- Generator: Adobe Illustrator 18.0.0, SVG Export Plug-In . SVG Version: 6.00 Build 0)  -->
<!DOCTYPE svg PUBLIC "-//W3C//DTD SVG 1.1//EN" "http://www.w3.org/Graphics/SVG/1.1/DTD/svg11.dtd">
<svg version="1.1" id="Layer_1" xmlns="http://www.w3.org/2000/svg" xmlns:xlink="http://www.w3.org/1999/xlink" x="0px" y="0px"
	 viewBox="231 321 150 150" enable-background="new 231 321 150 150" xml:space="preserve">
<g>
	<g>
		<path fill="#2980B9" d="M372.3,456.2H239.7c-2.8,0-5,2.3-5,5s2.3,5,5,5h132.8c2.8,0,5-2.3,5-5S375.1,456.2,372.3,456.2z"/>
		<path fill="#2980B9" d="M234.7,412.1l-0.1,23.6c0,1.3,0.5,2.7,1.5,3.6c1,1,2.2,1.5,3.5,1.5l23.5-0.1c1.3,0,2.6-0.5,3.5-1.5
			l81.3-81.3c1.9-1.9,1.9-5.1,0-7.2l-23.3-23.5c-1.9-1.9-5.1-1.9-7.2,0l-16.3,16.4l-65,64.9C235.3,409.6,234.7,410.8,234.7,412.1
			L234.7,412.1z M321,338l16.4,16.4l-9.2,9.2l-16.4-16.4C311.8,347.2,321,338,321,338z M244.7,414.3l59.9-59.9l16.4,16.4l-59.9,59.8
			l-16.5,0.1L244.7,414.3L244.7,414.3z"/>
	</g>
</g>
</svg>
