<?xml version="1.0" encoding="utf-8"?>
<!-- Generator: Adobe Illustrator 18.0.0, SVG Export Plug-In . SVG Version: 6.00 Build 0)  -->
<!DOCTYPE svg PUBLIC "-//W3C//DTD SVG 1.1//EN" "http://www.w3.org/Graphics/SVG/1.1/DTD/svg11.dtd">
<svg version="1.1" id="Layer_1" xmlns="http://www.w3.org/2000/svg" xmlns:xlink="http://www.w3.org/1999/xlink" x="0px" y="0px"
	 viewBox="231 321 150 150" enable-background="new 231 321 150 150" xml:space="preserve">
<g>
	<path fill="#CC0033" d="M291.1,467.7c0.7,0.2,1.4,0.4,2.2,0.4c1.9,0,3.8-0.7,4.9-2.2l62.4-77c1.3-1.5,1.4-3.6,0.4-5.2
		c-1-1.6-3.1-2.7-5.2-2.7l-38.7-0.2l11.2-50.7c0.6-2.2-0.9-4.6-3.3-5.6c-2.5-1-5.4-0.4-7.1,1.5L251.6,397c-1.4,1.5-1.7,3.6-0.7,5.3
		s3.1,2.9,5.4,2.9l42.8,0.2l-11.5,56.6C287,464.5,288.5,466.8,291.1,467.7z M268.5,395.2l43.7-46.9l-8.2,36.7
		c-0.3,1.5,0.2,3,1.3,4.2c1.2,1.1,2.8,1.9,4.5,1.9l34.5,0.1l-40.6,50.2l8-40c0.3-1.5-0.2-3-1.3-4.1c-1-1.1-2.6-1.7-4.4-1.7
		L268.5,395.2L268.5,395.2z"/>
</g>
</svg>
