<?xml version="1.0" encoding="utf-8"?>
<!-- Generator: Adobe Illustrator 18.0.0, SVG Export Plug-In . SVG Version: 6.00 Build 0)  -->
<!DOCTYPE svg PUBLIC "-//W3C//DTD SVG 1.1//EN" "http://www.w3.org/Graphics/SVG/1.1/DTD/svg11.dtd">
<svg version="1.1" id="Layer_1" xmlns="http://www.w3.org/2000/svg" xmlns:xlink="http://www.w3.org/1999/xlink" x="0px" y="0px"
	 viewBox="0 0 104 104" enable-background="new 0 0 104 104" xml:space="preserve">
<title>icn_conversations</title>
<defs>
	<filter id="Adobe_OpacityMaskFilter" filterUnits="userSpaceOnUse" x="-2" y="-2" width="108" height="108">
		<feColorMatrix  type="matrix" values="1 0 0 0 0  0 1 0 0 0  0 0 1 0 0  0 0 0 1 0"/>
	</filter>
</defs>
<mask maskUnits="userSpaceOnUse" x="-2" y="-2" width="108" height="108" id="b">
	<g filter="url(#Adobe_OpacityMaskFilter)">
		<circle id="a" fill="#FFFFFF" cx="52" cy="52" r="52"/>
	</g>
</mask>
<g mask="url(#b)">
	<g>
		<circle id="a_1_" fill="none" stroke="#62BED5" stroke-width="4" cx="52" cy="52" r="52"/>
	</g>
	<g>
		<path fill="#69BECC" d="M61.9,53.4c0.1,0.1,0.2,0.1,0.4,0.2c0.1,0,0.2,0.1,0.3,0.1c0.8,0.2,1.6,0.4,2.4,0.4c0.3,0,0.6,0,0.8,0
			c0.1,0,0.2,0,0.3,0l0.2,0c0.1,0,0.2,0,0.4-0.1c0.1,0,0.2,0,0.3-0.1l0.1,0c0.1,0,0.3-0.1,0.4-0.1l0.4-0.1c0.1,0,0.3-0.1,0.4-0.1
			c0.1,0,0.1-0.1,0.2-0.1c0.2-0.1,0.3-0.2,0.5-0.2c0.1,0,0.1-0.1,0.1-0.1c0.2-0.1,0.3-0.2,0.5-0.3l0.2-0.1c1.3-0.9,2.3-2.1,2.9-3.6
			c0.4-1,0.6-2,0.7-3l0-0.2c0-1-0.2-1.9-0.5-2.8c-1.2-3.2-4.3-5.4-7.7-5.4c-3.6,0-6.8,2.3-7.8,5.8c-0.2,0.6-0.3,1.3-0.4,1.9l0,0.1
			c0,0.1,0,0.3,0,0.4l0,0.1C56.9,49.2,58.9,52.1,61.9,53.4z M59,45.6l0-0.1c0-0.5,0.1-0.9,0.3-1.4c0.8-2.6,3.1-4.3,5.8-4.3
			c2.6,0,4.9,1.6,5.7,4c0.2,0.6,0.4,1.3,0.4,1.9v0.2c0,0.8-0.2,1.6-0.5,2.4c-0.4,1.1-1.2,2-2.1,2.6L68.5,51
			c-0.1,0.1-0.2,0.2-0.4,0.2L68,51.2c-0.1,0.1-0.3,0.1-0.4,0.2l-0.2,0.1c-0.1,0-0.2,0.1-0.3,0.1l-0.2,0.1c-0.1,0-0.2,0-0.3,0.1
			l-0.2,0.1c-0.1,0-0.1,0-0.2,0l-0.4,0.1c-0.8,0.1-1.7,0-2.4-0.2c-0.1,0-0.1,0-0.2-0.1l-0.2-0.1c-0.1,0-0.1,0-0.2-0.1
			c-2.2-0.9-3.7-3.1-3.7-5.6C59,45.7,59,45.7,59,45.6z M65.1,54.1c-3.5,0-6.9,1.4-9.3,4c-3.1-2.6-7.2-4.1-11.5-4.1
			C34.2,54,26,62.1,26,72.2c0,0.2,0,0.3,0,0.5l0,1.2h36.3l0.1-1.2c0-0.2,0-0.3,0-0.5c0-1.3-0.1-2.5-0.4-3.7h15.8l0.1-1.1
			c0-0.1,0-0.3,0-0.4C78,59.9,72.2,54.1,65.1,54.1z M28.1,71.9C28.3,63.1,35.4,56,44.2,56c4.2,0,8.1,1.7,11,4.3
			c0.2,0.2,0.4,0.4,0.6,0.6c0.1,0.1,0.2,0.2,0.3,0.3c0.6,0.7,1.2,1.4,1.7,2.2c0.1,0.1,0.2,0.3,0.2,0.4c0.1,0.2,0.3,0.5,0.4,0.7
			c0.1,0.1,0.1,0.2,0.2,0.4c0.2,0.5,0.5,1,0.6,1.5c0,0.1,0.1,0.2,0.1,0.3c0.1,0.3,0.2,0.6,0.3,0.9c0.4,1.3,0.6,2.8,0.7,4.2H28.1z
			 M61.5,66.4C61.5,66.4,61.5,66.4,61.5,66.4c-0.2-0.6-0.5-1.2-0.7-1.8c0-0.1-0.1-0.2-0.1-0.3c-0.2-0.5-0.5-1-0.8-1.5
			c-0.1-0.1-0.1-0.2-0.2-0.3c-0.3-0.5-0.6-0.9-0.9-1.4c-0.1-0.1-0.1-0.2-0.2-0.2c-0.4-0.5-0.8-1-1.3-1.5c2-2.1,4.8-3.3,7.8-3.3
			c5.8,0,10.5,4.6,10.8,10.3L61.5,66.4L61.5,66.4L61.5,66.4z M39.8,52c0.1,0,0.2,0.1,0.4,0.1l0.4,0.1c0.1,0,0.2,0.1,0.3,0.1
			c1.1,0.3,2.2,0.5,3.4,0.5h0c0.4,0,0.8,0,1.2-0.1c0.1,0,0.2,0,0.4-0.1l0.3,0c0.2,0,0.3,0,0.5-0.1c0.1,0,0.2-0.1,0.4-0.1l0.2-0.1
			c0.2,0,0.3-0.1,0.5-0.1c0.1,0,0.2-0.1,0.2-0.1l0.3-0.1c0.2-0.1,0.3-0.1,0.5-0.2c0.1,0,0.1-0.1,0.3-0.1c0.2-0.1,0.5-0.2,0.7-0.3
			c0.1,0,0.1-0.1,0.2-0.1c0.3-0.2,0.5-0.3,0.8-0.5l0.1-0.1c3.1-2.1,4.9-5.6,5-9.4c0-6.3-5.1-11.4-11.4-11.4c-6,0-11,4.7-11.4,10.7
			l0,0.1c0,0.2,0,0.4,0,0.6C32.8,46.1,35.6,50.2,39.8,52z M34.9,41.1l0-0.1c0.3-4.9,4.4-8.8,9.3-8.8c5.2,0,9.4,4.2,9.4,9.4
			c0,3.1-1.5,6-4,7.7l-0.1,0.1c-0.2,0.1-0.4,0.2-0.6,0.4l-0.1,0.1c-0.2,0.1-0.4,0.2-0.6,0.3l-0.2,0.1c-0.1,0.1-0.2,0.1-0.4,0.1
			L47,50.4c-0.1,0-0.2,0.1-0.4,0.1l-0.3,0.1c-0.1,0-0.1,0-0.2,0.1c-0.1,0-0.2,0-0.3,0.1l-0.3,0.1c-0.1,0-0.2,0-0.2,0
			c-0.3,0-0.6,0-0.9,0c-1,0-1.9-0.1-2.8-0.4c-0.1,0-0.1-0.1-0.2-0.1l-0.4-0.1c-0.1,0-0.2-0.1-0.3-0.1c-3.5-1.5-5.7-4.9-5.7-8.6
			C34.9,41.3,34.9,41.2,34.9,41.1z"/>
	</g>
</g>
</svg>
