<?xml version="1.0" encoding="utf-8"?>
<!-- Generator: Adobe Illustrator 18.0.0, SVG Export Plug-In . SVG Version: 6.00 Build 0)  -->
<!DOCTYPE svg PUBLIC "-//W3C//DTD SVG 1.1//EN" "http://www.w3.org/Graphics/SVG/1.1/DTD/svg11.dtd">
<svg version="1.1" id="Layer_1" xmlns="http://www.w3.org/2000/svg" xmlns:xlink="http://www.w3.org/1999/xlink" x="0px" y="0px"
	 viewBox="0 0 700 150" enable-background="new 0 0 700 150" xml:space="preserve">
<g>
	<circle fill="#2980B9" cx="87.2" cy="75" r="69"/>
	<g>
		<defs>
			<circle id="SVGID_1_" cx="87" cy="75" r="68.8"/>
		</defs>
		<clipPath id="SVGID_2_">
			<use xlink:href="#SVGID_1_"  overflow="visible"/>
		</clipPath>
		<g clip-path="url(#SVGID_2_)">
			<rect x="68.9" y="6.2" fill="#5499C7" width="59.1" height="10.2"/>
			<rect x="63" y="21.8" fill="#5499C7" width="64.6" height="10.2"/>
			<rect x="55.5" y="38.1" fill="#5499C7" width="72" height="10.2"/>
			<rect x="67" y="54" fill="#5499C7" width="61.1" height="10.2"/>
			<rect x="50.4" y="69.9" fill="#5499C7" width="77.7" height="10.2"/>
			<rect x="32" y="85.9" fill="#5499C7" width="96.1" height="10.2"/>
			<rect x="25.1" y="102.1" fill="#5499C7" width="103" height="10.2"/>
			<rect x="30.2" y="117.8" fill="#5499C7" width="97.9" height="10.2"/>
			<rect x="37.8" y="133.6" fill="#5499C7" width="90.2" height="10.2"/>
		</g>
		<g clip-path="url(#SVGID_2_)">
			<rect x="18" y="6.2" fill="#FFFFFF" width="59.1" height="10.2"/>
			<rect x="18.4" y="21.8" fill="#FFFFFF" width="64.6" height="10.2"/>
			<rect x="18.4" y="38.1" fill="#FFFFFF" width="72" height="10.2"/>
			<rect x="17.9" y="54" fill="#FFFFFF" width="61.1" height="10.2"/>
			<rect x="17.9" y="69.9" fill="#FFFFFF" width="77.7" height="10.2"/>
			<rect x="17.9" y="85.9" fill="#FFFFFF" width="96.1" height="10.2"/>
			<rect x="17.9" y="102.1" fill="#FFFFFF" width="103" height="10.2"/>
			<rect x="17.9" y="117.8" fill="#FFFFFF" width="97.9" height="10.2"/>
			<rect x="17.9" y="133.6" fill="#FFFFFF" width="90.2" height="10.2"/>
		</g>
	</g>
</g>
<g>
	<path fill="#FFFFFF" d="M218.5,49c3.4,2.4,6,5.8,7.7,10.3c1.7,4.4,2.6,9.6,2.6,15.5v1.1c0,5.7-0.9,10.8-2.6,15.3
		c-1.8,4.5-4.3,8-7.7,10.6c-3.4,2.6-7.5,3.8-12.2,3.8c-5.6,0-10.2-2-13.7-6.1v27.3h-16.8V46.4h15.6L192,52c3.6-4.4,8.3-6.6,14.2-6.6
		C211,45.4,215.1,46.6,218.5,49z M212.1,74.8c0-4.9-0.8-8.8-2.4-11.6c-1.6-2.8-4.2-4.3-7.7-4.3c-2.4,0-4.3,0.4-5.8,1.3
		c-1.5,0.8-2.7,2.1-3.5,3.8v22.8c1.7,3.5,4.9,5.3,9.5,5.3c3.5,0,6.1-1.5,7.7-4.4c1.6-3,2.4-6.9,2.4-11.7V74.8z"/>
	<path fill="#FFFFFF" d="M238.6,104.5V22h16.8v82.5H238.6z"/>
	<path fill="#FFFFFF" d="M315.6,98.3c0.4,2,1,3.8,1.8,5.4v0.9h-16.9c-0.6-1.4-1.2-3.2-1.6-5.2c-3.5,4.2-8.3,6.2-14.4,6.2
		c-3.6,0-6.9-0.7-9.9-2.2s-5.4-3.6-7.1-6.2c-1.8-2.7-2.6-5.7-2.6-9c0-6.1,2.3-10.8,6.8-14.2c4.5-3.3,11.3-5,20.2-5h6.3v-3.2
		c0-2.6-0.6-4.6-1.9-6.1c-1.3-1.5-3.2-2.2-5.9-2.2c-2.4,0-4.2,0.6-5.5,1.7c-1.3,1.1-2,2.7-2,4.9h-16.7c0-3.5,1-6.7,3.1-9.6
		c2.1-2.9,5-5.1,8.8-6.8c3.8-1.6,8.2-2.5,13.2-2.5c4.6,0,8.7,0.8,12.3,2.3c3.6,1.6,6.4,3.9,8.4,7c2,3.1,3,6.9,3,11.3V90
		C315,93.5,315.2,96.2,315.6,98.3z M294.5,91.6c1.7-1,3-2.2,3.7-3.6v-9.5h-6c-3.6,0-6.2,0.8-7.9,2.4c-1.7,1.6-2.6,3.7-2.6,6.2
		c0,1.8,0.6,3.2,1.9,4.3c1.2,1.1,2.9,1.6,4.9,1.6C290.7,93.1,292.8,92.6,294.5,91.6z"/>
	<path fill="#FFFFFF" d="M372.2,50.6c3.2,3.5,4.8,9.3,4.8,17.2v36.7h-16.8V67.8c0-3.4-0.7-5.7-2.1-7c-1.4-1.3-3.6-1.9-6.6-1.9
		c-4,0-6.9,1.6-8.9,4.8v40.8h-16.7V46.4h15.7l0.6,6.7c2-2.5,4.4-4.5,7.2-5.8c2.8-1.3,5.9-2,9.4-2C364.5,45.4,369,47.1,372.2,50.6z"
		/>
	<path fill="#FFFFFF" d="M435.1,104.5l-3.8-4.4c-3,1.9-6.2,3.2-9.3,4.1c-3.2,0.9-6.7,1.3-10.6,1.3c-5.2,0-9.7-0.9-13.5-2.8
		s-6.8-4.5-8.9-7.8c-2.1-3.3-3.1-7.2-3.1-11.5c0-2.9,0.6-5.5,1.7-7.8c1.1-2.3,2.7-4.4,4.6-6.3c2-1.9,4.5-3.9,7.6-6.1
		c-2.4-3.3-4.2-6.3-5.4-9.1c-1.2-2.7-1.8-5.4-1.8-8.2c0-4.1,0.9-7.7,2.7-10.9c1.8-3.2,4.3-5.6,7.6-7.4c3.3-1.8,7.1-2.7,11.4-2.7
		c4,0,7.5,0.8,10.6,2.5c3.1,1.7,5.4,3.9,7.1,6.8c1.7,2.8,2.5,6,2.5,9.3c0,3.4-0.9,6.6-2.8,9.5c-1.9,2.9-4.4,5.5-7.6,7.8l-4.8,3.4
		L432,79.1c2.1-4.1,3.1-8.6,3.1-13.5h14.2c0,10.5-2.4,18.9-7.1,25.2l11.8,13.6H435.1z M422,89.6L407.4,73l-0.9,0.6
		c-1.5,1.4-2.5,2.8-3.1,4.2c-0.6,1.4-0.9,3-0.9,4.6c0,1.9,0.4,3.6,1.3,5c0.8,1.5,2,2.6,3.5,3.4c1.5,0.8,3.2,1.2,5,1.2
		C415.7,92.1,418.9,91.3,422,89.6z M409.2,40.8c-1.2,1.4-1.8,3.1-1.8,5.2c0,1.4,0.4,2.9,1.1,4.5c0.7,1.5,1.8,3.3,3.3,5.2l3.8-2.5
		c2-1.3,3.4-2.6,4.2-3.9c0.7-1.3,1.1-2.7,1.1-4.2c0-1-0.3-2-0.8-3s-1.3-1.8-2.3-2.4c-1-0.6-2.2-0.9-3.5-0.9
		C412.1,38.7,410.4,39.4,409.2,40.8z"/>
	<path fill="#FFFFFF" d="M511,46.4l-19.3,58.1h-10.6h-6l-19.3-58.1h17.6l10,37.8l10-37.8H511z"/>
	<path fill="#FFFFFF" d="M533.2,25.2c1.7,1.6,2.6,3.7,2.6,6.2c0,2.5-0.9,4.6-2.6,6.1c-1.7,1.6-4,2.4-6.8,2.4s-5-0.8-6.7-2.4
		c-1.7-1.6-2.6-3.6-2.6-6.1c0-2.5,0.9-4.6,2.6-6.2c1.7-1.6,3.9-2.4,6.7-2.4S531.4,23.6,533.2,25.2z M518.1,104.5V46.4h16.8v58.1
		H518.1z"/>
	<path fill="#FFFFFF" d="M598.5,81H562c0.6,3.4,2.1,6.2,4.5,8.1c2.3,2,5.3,3,8.9,3c2.8,0,5.4-0.5,7.7-1.5c2.4-1,4.4-2.6,6.1-4.7
		l7.9,9.4c-2,2.9-5,5.3-9,7.3c-3.9,2-8.5,3-13.8,3c-6,0-11.2-1.3-15.6-3.8c-4.4-2.5-7.8-5.9-10.2-10.2s-3.5-9-3.5-14.2v-2
		c0-5.8,1.1-10.9,3.3-15.4c2.2-4.5,5.3-8.1,9.5-10.7c4.1-2.6,9.1-3.9,14.8-3.9c5.5,0,10.2,1.2,14.1,3.5c3.9,2.3,6.9,5.6,8.9,9.9
		c2,4.3,3,9.3,3,15.1V81z M582,68.5c0-3-0.8-5.4-2.4-7.1c-1.6-1.7-4-2.6-7.2-2.6c-5.7,0-9.1,3.7-10.3,11h20V68.5z"/>
	<path fill="#FFFFFF" d="M679.8,46.4l-14.3,58.1h-10.3h-3.9l-10.3-35l-10.4,35h-8.6h-5.4l-14.3-58.1h16.1l6.8,35.6l9.9-35.6h10.5
		h1.3l9.9,35.3l6.8-35.3H679.8z"/>
</g>
</svg>
