<?xml version="1.0" encoding="utf-8"?>
<!-- Generator: Adobe Illustrator 18.0.0, SVG Export Plug-In . SVG Version: 6.00 Build 0)  -->
<!DOCTYPE svg PUBLIC "-//W3C//DTD SVG 1.1//EN" "http://www.w3.org/Graphics/SVG/1.1/DTD/svg11.dtd">
<svg version="1.1" id="Layer_1" xmlns="http://www.w3.org/2000/svg" xmlns:xlink="http://www.w3.org/1999/xlink" x="0px" y="0px"
	 viewBox="0 0 700 150" enable-background="new 0 0 700 150" xml:space="preserve">
<g>
	<path fill="#FFFFFF" d="M104,19.5c3-4,7.1-9.1,10.9-14.5c2.7-3.8,5.3-4,8.8-1.1c4.8,3.9,9.7,7.6,14.8,11.2c3.7,2.6,3.7,5.1,1.1,8.4
		c-4.1,5.1-8.1,10.3-11.7,15.8c-1,1.5-1.2,4.6-0.3,6.2c23.6,43.4-0.5,94.3-49.1,101.6c-39.2,5.9-70-21.6-76.3-54.3
		C-6,49.8,28.5,9.5,72.3,12.4C82.5,13.1,92.5,16.9,104,19.5z M58.5,62.9C50.4,68.9,42.7,74.5,35,80.2c-7.7,5.7-15.3,11.4-23.5,17.4
		c2.8,5.6,5.4,10.8,8.3,16.7c11.4-8.4,22.1-16.2,33-24.2c1.5,2.1,2.5,3.5,3.9,5.4c-10.8,8-21.3,15.8-32.4,24.1
		c3.6,3.2,6.7,6,9.9,8.9c10.4-7.6,20.3-14.9,30.6-22.4c1.4,2.2,2.4,3.7,3.6,5.5c-9.2,6.9-18.2,13.5-27.9,20.8c3.3,1.4,5.7,2.4,8,3.6
		c5.4,2.6,10.1,2.4,14.8-2c4.2-3.9,9.2-6.9,14.2-10.6c1.4,2.1,2.4,3.8,3.5,5.5c-4.5,3.5-8.6,6.6-13.7,10.5
		c15.2,0,27.2-4.1,38.1-12.8c-8.6-11.7-17-23-25.4-34.5c-5.8,3.3-11.2,6.4-17.7,10.2c1.8-8.2,3-14.8,4.8-21.2c1-3.7,0.5-6.5-2-9.3
		C62.9,69.1,61,66.3,58.5,62.9z M97.2,28.6c-17.7-11.8-44.3-10.2-63,3.3C15.9,45.1,5.5,70.2,10.8,89.6c16.4-12,32.6-23.9,49.1-36.1
		c3.4,4.5,6.4,8.6,9.3,12.4C78.6,53.4,87.8,41.1,97.2,28.6z M110.3,121.7c19.2-16.4,23.8-52.1,9.1-71.3c-5.1,6.8-9.9,13.7-15.2,20.1
		C98.8,77.1,93,83.2,87,90C94.2,99.8,102.1,110.6,110.3,121.7z M76.5,64.3c9.2,5.4,9.2,5.4,14.9-2.2c9.6-12.7,19.1-25.4,28.7-38.2
		c2.5-3.4,5-6.8,7.8-10.6c-3-2.1-5.5-4-8.4-6.1C105,26.5,90.9,45.3,76.5,64.3z M75,68.4c-1.4,6.3-2.7,10.5-3.3,14.9
		c-0.5,3.9,2.6,5.8,5.9,3.9c3.7-2.1,7.2-4.5,12.2-7.6C84.7,75.8,80.5,72.6,75,68.4z"/>
</g>
<g>
	<path fill="#FFFFFF" d="M223.5,76.3c0,12.2-2,21.7-5.9,28.3c-3.9,6.7-9.4,10-16.6,10c-4.1,0-7.7-1.1-10.7-3.3c-3-2.2-5.4-5.4-7-9.6
		H183c0.2,1.4,0.3,5.5,0.3,12.3V142h-15.2V56.9c0-6.9-0.1-12.5-0.4-16.8h14.8c0.2,0.8,0.3,2.4,0.5,4.8c0.1,2.4,0.2,4.8,0.2,7.1h0.2
		c3.4-9,9.7-13.5,18.7-13.5c6.8,0,12.1,3.3,15.9,9.8C221.6,54.9,223.5,64.3,223.5,76.3z M207.7,76.3c0-16.4-4-24.6-12.1-24.6
		c-4,0-7.1,2.2-9.3,6.6c-2.1,4.4-3.2,10.6-3.2,18.5c0,7.9,1.1,14,3.2,18.3c2.1,4.3,5.2,6.5,9.2,6.5
		C203.6,101.7,207.7,93.2,207.7,76.3z"/>
	<path fill="#FFFFFF" d="M234.7,113.3V12.9h15.2v100.4H234.7z"/>
	<path fill="#FFFFFF" d="M277.9,114.6c-5.7,0-10.1-1.9-13.3-5.8c-3.2-3.9-4.8-9.3-4.8-16.3c0-7.6,2-13.4,5.9-17.3
		c4-4,9.7-6,17.2-6.1l12.6-0.3v-3.7c0-4.8-0.7-8.3-2-10.7c-1.3-2.3-3.5-3.5-6.6-3.5c-2.8,0-4.9,0.8-6.2,2.4c-1.3,1.6-2.1,4.3-2.5,8
		l-15.9-0.9c1-7.1,3.6-12.5,7.8-16.2c4.2-3.7,10-5.5,17.3-5.5c7.4,0,13.1,2.3,17.1,6.8c4,4.6,6,11,6,19.4v26.7
		c0,4.1,0.4,6.9,1.1,8.5c0.7,1.6,2,2.3,3.7,2.3c1.2,0,2.3-0.1,3.4-0.4v10.3c-0.9,0.3-1.7,0.5-2.4,0.7c-0.7,0.2-1.4,0.4-2.2,0.5
		c-0.7,0.1-1.5,0.2-2.3,0.3c-0.8,0.1-1.8,0.1-2.8,0.1c-3.8,0-6.6-1.2-8.5-3.5c-1.8-2.3-2.9-5.8-3.3-10.4h-0.3
		C292.9,109.8,286.5,114.6,277.9,114.6z M295.6,79.4l-7.8,0.1c-3.5,0.2-6,0.7-7.5,1.5c-1.5,0.8-2.6,2-3.4,3.6
		c-0.8,1.6-1.2,3.8-1.2,6.5c0,3.5,0.6,6.1,1.9,7.7c1.3,1.7,3,2.5,5.1,2.5c2.4,0,4.6-0.8,6.5-2.4c2-1.6,3.5-3.9,4.6-6.7
		c1.1-2.9,1.7-5.9,1.7-9.1V79.4z"/>
	<path fill="#FFFFFF" d="M362.9,113.3V72.2c0-12.9-3.5-19.3-10.4-19.3c-3.7,0-6.6,2-8.9,5.9c-2.3,3.9-3.4,9-3.4,15.2v39.2h-15.2
		V56.5c0-3.9,0-7.1-0.1-9.6c-0.1-2.5-0.2-4.7-0.3-6.7H339c0.1,0.9,0.3,3.1,0.4,6.9c0.2,3.7,0.3,6.3,0.3,7.7h0.2
		c2.1-5.6,4.6-9.7,7.7-12.2c3.1-2.5,6.8-3.8,11.1-3.8c6.2,0,11,2.4,14.3,7.2c3.3,4.8,5,11.8,5,21v46.5H362.9z"/>
	<path fill="#FFFFFF" d="M388.7,87.2c0-6.1,1.5-11.5,4.4-16.3c2.9-4.8,7.6-9,13.9-12.7c-2.7-6.8-4-13.1-4-18.9
		c0-7,1.8-12.5,5.3-16.3c3.5-3.8,8.6-5.7,15.1-5.7c6.1,0,10.9,1.8,14.4,5.4c3.5,3.6,5.3,8.5,5.3,14.7c0,3.5-0.7,6.6-2.1,9.4
		c-1.4,2.8-3.4,5.4-6,7.8c-2.6,2.4-7,5.4-13.1,9c3.6,7.9,8,15.5,13.2,22.7c3.8-7.1,6.6-15.3,8.6-24.6l11.3,4.7
		c-2.5,10.5-5.9,20-10.4,28.4c3.1,3.3,6.3,4.9,9.6,4.9c2.3,0,4.5-0.4,6.3-1.1v13.7c-2,1-4.3,1.5-7.1,1.5c-3.1,0-6.2-0.7-9.3-2.1
		c-3.1-1.4-6-3.4-8.5-6.1c-6.1,5.8-13,8.7-20.5,8.7c-8.3,0-14.8-2.4-19.4-7.2C391,102.6,388.7,95.9,388.7,87.2z M426.5,96.6
		c-6-8.3-10.9-16.8-14.7-25.5c-6.2,3.7-9.3,8.9-9.3,15.8c0,4.5,1.2,8.1,3.5,10.8c2.3,2.7,5.5,4.1,9.6,4.1c2.3,0,4.5-0.5,6.4-1.6
		C423.8,99.1,425.3,97.9,426.5,96.6z M430.9,37.6c0-2.6-0.7-4.7-2.1-6.3c-1.4-1.6-3.2-2.4-5.6-2.4c-2.8,0-4.9,1-6.4,2.9
		c-1.5,1.9-2.2,4.5-2.2,7.7c0,3.9,1,8.3,2.9,13.1c3.8-2,6.5-3.7,8.1-5.1c1.6-1.4,2.9-2.9,3.8-4.5C430.5,41.4,430.9,39.6,430.9,37.6z
		"/>
	<path fill="#FFFFFF" d="M502.3,113.3h-18.2l-21-73.2h16.1L489.5,81c0.5,2.3,1.8,7.9,3.8,16.9c0.4-1.8,1.1-5.1,2.2-9.7
		c1.1-4.6,5.3-20.7,12.5-48.1h15.9L502.3,113.3z"/>
	<path fill="#FFFFFF" d="M531,26.9v-14h15.2v14H531z M531,113.3V40.1h15.2v73.2H531z"/>
	<path fill="#FFFFFF" d="M584.7,114.6c-8.8,0-15.6-3.3-20.3-9.8c-4.7-6.5-7.1-16-7.1-28.5c0-12.1,2.4-21.4,7.2-27.9
		c4.8-6.5,11.6-9.7,20.4-9.7c8.4,0,14.8,3.5,19.3,10.5c4.4,7,6.7,17.2,6.7,30.6v0.5h-37.6c0,7.1,1.1,12.5,3.2,16.1s5.1,5.4,9,5.4
		c5.4,0,8.8-2.9,10.2-8.7l14.3,1.6C605.9,108,597.4,114.6,584.7,114.6z M584.7,50.7c-3.6,0-6.3,1.6-8.3,4.7c-1.9,3.1-3,7.5-3.1,13.1
		h22.7c-0.3-5.9-1.4-10.3-3.4-13.3C590.8,52.2,588.1,50.7,584.7,50.7z"/>
	<path fill="#FFFFFF" d="M684.6,113.3h-16.1l-9.3-44.7c-0.4-2-1.3-7-2.5-15l-2.8,15.2l-9.4,44.5h-16.1l-15.2-73.2h14.3l9.6,56l0.8-5
		l1.4-7.9l9.2-43h16.3l9,43c0.5,2.3,1.2,6.7,2.2,12.9l1.5-8.9l8.4-47H700L684.6,113.3z"/>
</g>
</svg>
