<?xml version="1.0" encoding="utf-8"?>
<!-- Generator: Adobe Illustrator 18.0.0, SVG Export Plug-In . SVG Version: 6.00 Build 0)  -->
<!DOCTYPE svg PUBLIC "-//W3C//DTD SVG 1.1//EN" "http://www.w3.org/Graphics/SVG/1.1/DTD/svg11.dtd">
<svg version="1.1" id="Layer_1" xmlns="http://www.w3.org/2000/svg" xmlns:xlink="http://www.w3.org/1999/xlink" x="0px" y="0px"
	 viewBox="231 321 150 150" enable-background="new 231 321 150 150" xml:space="preserve">
<g>
	<path fill="#2980B9" d="M363.5,361.4c-0.1,0-0.2,0-0.3,0c-0.3-0.5-0.6-0.9-0.9-1.3c-14.9-23.3-42.4-35-69.5-29.6
		c-36,7.2-59.6,42.7-52.3,78.9c7.7,38,46.1,61.5,83.5,51c28.5-8,48.4-34.1,48.7-63.6c0-3.2-1.8-5.3-4.6-5.4c-2.8-0.1-4.6,2-4.8,5.2
		c-0.2,2.6-0.2,5.3-0.6,7.9c-1.9,11.9-6.8,22.3-15.2,31c-10.1,10.6-22.5,16.7-37.1,17.8c-16.5,1.3-31.1-3.9-43.3-15.1
		c-11.5-10.6-17.7-23.8-18.5-39.4c-0.8-16.9,4.9-31.6,16.8-43.4c13.9-13.7,30.9-19.3,50.3-16c18,3.1,31.4,13,40.5,28.8
		c0.6,1.1,1.2,2.3,1.9,3.7c-1,0-1.5,0-2.1,0c-9.8,0-19.7,0-29.6,0c-0.8,0-1.6,0-2.3,0.2c-2.1,0.3-3.5,2-3.7,4.1
		c-0.2,3.1,1.8,5.2,5.2,5.2c13.9,0,27.7,0,41.6,0c3.7,0,5.5-1.8,5.5-5.5c0-13.1,0-26.2,0-39.3c0-1,0-1.9,0-2.9
		c-0.1-2.5-1.9-4.4-4.4-4.5c-2.6-0.1-4.6,1.6-4.9,4.2c-0.1,0.5,0,1.1,0,1.6c0,8.3,0,16.5,0,24.8
		C363.5,360.4,363.5,360.9,363.5,361.4z"/>
	<path fill="#2980B9" d="M363.5,361.4c0-0.5,0-1,0-1.6c0-8.3,0-16.5,0-24.8c0-0.5,0-1.1,0-1.6c0.3-2.5,2.3-4.3,4.9-4.2
		c2.4,0.1,4.3,2,4.4,4.5c0,1,0,1.9,0,2.9c0,13.1,0,26.2,0,39.3c0,3.7-1.8,5.5-5.5,5.5c-13.9,0-27.7,0-41.6,0c-3.4,0-5.4-2.1-5.2-5.2
		c0.2-2.1,1.6-3.7,3.7-4.1c0.8-0.1,1.5-0.2,2.3-0.2c9.8,0,19.7,0,29.6,0c0.6,0,1.1,0,2.1,0c-0.7-1.4-1.2-2.6-1.9-3.7
		c-9.1-15.8-22.5-25.7-40.5-28.8c-19.4-3.3-36.3,2.2-50.3,16c-12,11.8-17.6,26.5-16.8,43.4c0.8,15.5,7,28.8,18.4,39.4
		c12.2,11.3,26.8,16.4,43.3,15.1c14.6-1.1,27-7.2,37.1-17.8c8.3-8.7,13.3-19.1,15.2-31c0.4-2.6,0.5-5.3,0.6-7.9
		c0.2-3.2,2-5.3,4.8-5.2c2.8,0.1,4.6,2.2,4.6,5.4c-0.2,29.5-20.2,55.7-48.7,63.6c-37.4,10.5-75.8-12.9-83.5-51
		c-7.3-36.1,16.3-71.7,52.3-78.9c27.1-5.4,54.5,6.3,69.5,29.6c0.3,0.5,0.6,0.9,0.9,1.3C363.3,361.4,363.4,361.4,363.5,361.4z"/>
</g>
</svg>
