<?xml version="1.0" encoding="utf-8"?>
<!-- Generator: Adobe Illustrator 18.0.0, SVG Export Plug-In . SVG Version: 6.00 Build 0)  -->
<!DOCTYPE svg PUBLIC "-//W3C//DTD SVG 1.1//EN" "http://www.w3.org/Graphics/SVG/1.1/DTD/svg11.dtd">
<svg version="1.1" id="Layer_1" xmlns="http://www.w3.org/2000/svg" xmlns:xlink="http://www.w3.org/1999/xlink" x="0px" y="0px"
	 viewBox="231 321 150 150" enable-background="new 231 321 150 150" xml:space="preserve">
<g>
	<g>
		<path fill="#28B463" d="M238.2,380.9c-2.9,0-5.2,2.2-5.2,5.2v20.1c0,2.9,2.2,5.2,5.2,5.2h9.4c1.4,5.4,3.5,10.6,6.4,15.3l-6.5,6.5
			c-2,2-2,5.3,0,7.3l14.2,14.2c2,2,5.3,2,7.3,0l6.6-6.6c4.8,2.8,9.9,4.9,15.3,6.3v9.4c0,2.9,2.2,5.2,5.2,5.2h20.1
			c2.9,0,5.2-2.2,5.2-5.2v-9.6c5.4-1.4,10.4-3.5,15.2-6.3l6.8,6.8c2,2,5.3,2,7.3,0l14.2-14.2c2-2,2-5.3,0-7.3l-6.8-6.8
			c2.8-4.8,4.9-9.8,6.3-15.2h9.6c2.9,0,5.2-2.2,5.2-5.2V386c0-2.9-2.2-5.2-5.2-5.2h-9.6c-1.4-5.4-3.5-10.4-6.3-15.2l6.8-6.8
			c2-2,2-5.3,0-7.3l-14.3-14c-2-2-5.3-2-7.3,0l-6.6,6.6c-4.8-2.8-9.9-4.9-15.3-6.4v-9.4c0-2.9-2.2-5.2-5.2-5.2h-20.1
			c-2.9,0-5.2,2.2-5.2,5.2v9.4c-5.4,1.4-10.6,3.5-15.3,6.3l-6.6-6.6c-2-2-5.3-2-7.3,0l-14.2,14.3c-2,2-2,5.3,0,7.3l6.5,6.5
			c-2.9,4.8-5,9.9-6.4,15.5L238.2,380.9L238.2,380.9z M256.8,387c1.2-7,4-13.4,7.9-19.2c1.4-2,1.1-4.8-0.6-6.5l-5.8-5.9l6.9-6.9
			l5.9,5.9c1.7,1.7,4.5,2,6.5,0.6c5.8-4,12.3-6.6,19.2-7.9c2.4-0.5,4.3-2.5,4.3-5v-8.4h9.8v8.4c0,2.5,1.7,4.7,4.2,5
			c6.9,1.2,13.3,4,19.1,7.9c2,1.4,4.8,1.1,6.5-0.6l6-6l6.9,6.9l-6.1,6c-1.7,1.7-2,4.5-0.6,6.5c3.9,5.8,6.5,12.2,7.9,19.1
			c0.5,2.4,2.6,4.3,5,4.3h8.5v9.8h-8.5c-2.5,0-4.7,1.7-5,4.2c-1.2,6.9-3.9,13.3-7.9,19.1c-1.4,2-1.1,4.8,0.6,6.5l6,6l-6.9,6.9l-6-6
			c-1.7-1.7-4.5-2-6.5-0.6c-5.8,4-12.2,6.6-19.1,7.9c-2.4,0.5-4.2,2.6-4.2,5v8.4h-9.8v-8.4c0-2.5-1.7-4.7-4.3-5
			c-7-1.2-13.4-3.9-19.2-7.9c-2-1.4-4.8-1.1-6.5,0.6l-5.9,5.9l-6.9-6.5l5.9-5.9c1.7-1.7,2-4.5,0.6-6.5c-4-5.8-6.6-12.3-8-19.2
			c-0.5-2.4-2.5-4.2-5-4.2h-8.3v-9.8h8.3C254.2,391.2,256.3,389.5,256.8,387z"/>
		<path fill="#28B463" d="M305.9,432.2c19.4,0,35.3-15.8,35.3-35.3s-15.8-35.3-35.3-35.3c-19.4,0-35.3,15.8-35.3,35.3
			S286.4,432.2,305.9,432.2z M305.9,371.9c13.8,0,25,11.2,25,25s-11.2,25-25,25c-13.8,0-25-11.2-25-25S292.1,371.9,305.9,371.9z"/>
	</g>
</g>
</svg>
