<?xml version="1.0" encoding="utf-8"?>
<!-- Generator: Adobe Illustrator 18.0.0, SVG Export Plug-In . SVG Version: 6.00 Build 0)  -->
<!DOCTYPE svg PUBLIC "-//W3C//DTD SVG 1.1//EN" "http://www.w3.org/Graphics/SVG/1.1/DTD/svg11.dtd">
<svg version="1.1" id="Layer_1" xmlns="http://www.w3.org/2000/svg" xmlns:xlink="http://www.w3.org/1999/xlink" x="0px" y="0px"
	 viewBox="231 321 150 150" enable-background="new 231 321 150 150" xml:space="preserve">
<g>
	<path fill="#2980B9" d="M249.7,361.1c0-8.3,0-16.7,0-25c0-0.5,0-1.1,0-1.6c-0.3-2.6-2.3-4.3-4.9-4.2c-2.4,0.1-4.3,2-4.4,4.6
		c0,1,0,2,0,2.9c0,13.2,0,26.4,0,39.6c0,3.8,1.8,5.5,5.5,5.5c14,0,28,0,41.9,0c3.4,0,5.4-2.1,5.2-5.2c-0.2-2.1-1.7-3.8-3.7-4.1
		c-0.7-0.1-1.5-0.2-2.3-0.2c-9.9,0-19.9,0-29.8,0c-0.6,0-1.1,0-2.1,0c0.7-1.4,1.2-2.6,1.9-3.8c9.1-16,22.7-25.9,40.8-29.1
		c19.5-3.4,36.6,2.2,50.7,16.1c12.1,11.9,17.8,26.7,17,43.7c-0.8,15.7-7,29-18.6,39.7c-12.3,11.4-27,16.5-43.6,15.3
		c-14.7-1.1-27.3-7.3-37.4-18c-8.4-8.8-13.4-19.3-15.3-31.3c-0.4-2.7-0.5-5.4-0.6-8c-0.2-3.2-2-5.3-4.8-5.2
		c-2.8,0.1-4.7,2.2-4.6,5.4c0.2,29.8,20.4,56.1,49.1,64.1c37.7,10.5,76.4-13.1,84.2-51.4c7.4-36.4-16.4-72.3-52.7-79.5
		c-27.3-5.5-55,6.3-70.1,29.8c-0.3,0.5-0.6,0.9-0.9,1.4c-0.1,0-0.2,0-0.3,0C249.7,362.1,249.7,361.6,249.7,361.1z"/>
	<path fill="#2980B9" d="M249.9,362.6c0.3-0.5,0.6-0.9,0.9-1.4c15.1-23.5,42.7-35.3,70.1-29.8c36.3,7.3,60.1,43.1,52.7,79.5
		c-7.8,38.3-46.5,62-84.2,51.4c-28.7-8-48.8-34.3-49.1-64.1c0-3.2,1.8-5.4,4.6-5.4c2.8-0.1,4.7,2,4.8,5.2c0.2,2.7,0.2,5.4,0.6,8
		c1.9,12,6.9,22.5,15.3,31.3c10.2,10.7,22.8,16.8,37.4,18c16.7,1.3,31.3-3.9,43.6-15.2c11.5-10.7,17.8-24,18.6-39.7
		c0.8-17-4.9-31.8-17-43.7c-14-13.9-31.1-19.4-50.7-16.1c-18.1,3.1-31.7,13.1-40.8,29.1c-0.6,1.1-1.2,2.3-1.9,3.8c1,0,1.5,0,2.1,0
		c9.9,0,19.9,0,29.8,0c0.8,0,1.5,0,2.3,0.2c2.1,0.3,3.6,2,3.7,4.1c0.3,3.1-1.8,5.2-5.2,5.2c-14,0-28,0-41.9,0
		c-3.8,0-5.5-1.8-5.5-5.5c0-13.2,0-26.4,0-39.6c0-1,0-2,0-2.9c0.1-2.6,2-4.5,4.4-4.6c2.6-0.1,4.6,1.7,4.9,4.2c0,0.5,0,1.1,0,1.6
		c0,8.3,0,16.7,0,25c0,0.5,0,1,0,1.6C249.8,362.6,249.9,362.7,249.9,362.6z"/>
</g>
</svg>
