<?xml version="1.0" encoding="utf-8"?>
<!-- Generator: Adobe Illustrator 18.0.0, SVG Export Plug-In . SVG Version: 6.00 Build 0)  -->
<!DOCTYPE svg PUBLIC "-//W3C//DTD SVG 1.1//EN" "http://www.w3.org/Graphics/SVG/1.1/DTD/svg11.dtd">
<svg version="1.1" id="Layer_1" xmlns="http://www.w3.org/2000/svg" xmlns:xlink="http://www.w3.org/1999/xlink" x="0px" y="0px"
	 viewBox="231 321 150 150" enable-background="new 231 321 150 150" xml:space="preserve">
<g>
	<g>
		<path fill="#2980B9" d="M290.1,436c13.7,0,26.1-4.8,35.7-13l43.4,43.4c1,1,2.2,1.5,3.6,1.5c1.2,0,2.6-0.5,3.6-1.5c2-2,2-5.2,0-7.2
			L333,415.8c8.1-9.7,13-22.2,13-35.7c0-30.9-25.1-56-56-56c-30.8,0-56,25.2-56,56C234.1,410.9,259.3,436,290.1,436z M290.1,334.2
			c25.3,0,45.8,20.6,45.8,45.8c0,25.3-20.5,45.8-45.8,45.8c-25.3,0-45.8-20.6-45.8-45.8S264.9,334.2,290.1,334.2z"/>
		<path fill="#2980B9" d="M285,413.2c0,2.9,2.2,5.1,5.1,5.1s5.1-2.2,5.1-5.1v-28h28c2.9,0,5.1-2.2,5.1-5.1s-2.2-5.1-5.1-5.1h-28v-28
			c0-2.9-2.2-5.1-5.1-5.1c-2.9,0-5.1,2.2-5.1,5.1v28h-28c-2.9,0-5.1,2.2-5.1,5.1s2.2,5.1,5.1,5.1h28V413.2L285,413.2z"/>
	</g>
</g>
</svg>
