<?xml version="1.0" encoding="utf-8"?>
<!-- Generator: Adobe Illustrator 18.0.0, SVG Export Plug-In . SVG Version: 6.00 Build 0)  -->
<!DOCTYPE svg PUBLIC "-//W3C//DTD SVG 1.1//EN" "http://www.w3.org/Graphics/SVG/1.1/DTD/svg11.dtd">
<svg version="1.1" id="Layer_1" xmlns="http://www.w3.org/2000/svg" xmlns:xlink="http://www.w3.org/1999/xlink" x="0px" y="0px"
	 viewBox="231 321 150 150" enable-background="new 231 321 150 150" xml:space="preserve">
<g>
	<g>
		<path fill="#2980B9" d="M290.7,327.3c-29.5,0-53.4,23.9-53.4,53.4s23.9,53.4,53.4,53.4c13,0,24.9-4.6,34.2-12.4l41.6,41.6
			c0.9,0.9,2.1,1.4,3.4,1.4c1.2,0,2.5-0.5,3.4-1.4c1.9-1.9,1.9-5,0-6.9L331.8,415c7.7-9.2,12.4-21.2,12.4-34.2
			C344.1,351.2,320.1,327.3,290.7,327.3L290.7,327.3z M290.7,424.5c-24.2,0-43.8-19.7-43.8-43.8s19.6-43.8,43.8-43.8
			s43.8,19.6,43.8,43.8S314.8,424.5,290.7,424.5z"/>
		<path fill="#2980B9" d="M322.3,375.9H259c-2.7,0-4.9,2.1-4.9,4.9c0,2.7,2.1,4.9,4.9,4.9h63.2c2.7,0,4.9-2.1,4.9-4.9
			C327.1,378,325,375.9,322.3,375.9z"/>
	</g>
</g>
</svg>
