<?xml version="1.0" encoding="utf-8"?>
<!-- Generator: Adobe Illustrator 18.0.0, SVG Export Plug-In . SVG Version: 6.00 Build 0)  -->
<!DOCTYPE svg PUBLIC "-//W3C//DTD SVG 1.1//EN" "http://www.w3.org/Graphics/SVG/1.1/DTD/svg11.dtd">
<svg version="1.1" id="Layer_1" xmlns="http://www.w3.org/2000/svg" xmlns:xlink="http://www.w3.org/1999/xlink" x="0px" y="0px"
	 viewBox="0 0 800 200" enable-background="new 0 0 800 200" xml:space="preserve">
<g>
	<path fill="#FFFFFF" d="M124.7,34.8c3.6-4.7,8.4-10.7,12.8-17c3.2-4.4,6.2-4.7,10.4-1.3c5.6,4.6,11.4,9,17.4,13.2
		c4.3,3,4.3,6,1.2,9.9c-4.8,6-9.6,12.1-13.8,18.6c-1.2,1.8-1.4,5.4-0.4,7.3c27.7,50.9-0.6,110.8-57.7,119.4
		c-46,6.9-82.3-25.4-89.6-63.8C-4.5,70.4,36,23,87.5,26.4C99.5,27.2,111.2,31.7,124.7,34.8z M71.3,85.8c-9.5,7-18.6,13.6-27.6,20.2
		c-9,6.6-18,13.3-27.6,20.4c3.3,6.5,6.4,12.7,9.8,19.6c13.4-9.8,25.9-19,38.7-28.4c1.8,2.4,3,4.2,4.5,6.3
		c-12.7,9.4-25,18.6-38.1,28.3c4.2,3.8,7.9,7.1,11.7,10.5c12.2-9,23.9-17.5,35.9-26.3c1.7,2.5,2.8,4.3,4.3,6.5
		c-10.9,8.1-21.4,15.9-32.8,24.4c3.8,1.7,6.6,2.9,9.4,4.2c6.3,3,11.8,2.8,17.4-2.3c5-4.6,10.8-8.2,16.7-12.5
		c1.6,2.5,2.8,4.4,4.1,6.5c-5.3,4.1-10.1,7.7-16.1,12.3c17.8,0,31.9-4.8,44.7-15.1c-10.2-13.8-19.9-27-29.9-40.5
		c-6.8,3.9-13.1,7.5-20.8,11.9c2.1-9.6,3.5-17.4,5.6-24.9c1.2-4.3,0.5-7.6-2.3-10.9C76.4,93.1,74.2,89.8,71.3,85.8z M116.7,45.5
		c-20.8-13.8-52.1-12-74.1,3.9C21.3,64.8,9,94.4,15.2,117.1C34.5,103,53.5,89,72.9,74.7c4,5.3,7.6,10.1,10.9,14.6
		C94.9,74.6,105.7,60.2,116.7,45.5z M132.2,154.9c22.6-19.2,27.9-61.2,10.6-83.7c-6,8-11.7,16-17.9,23.6
		c-6.3,7.7-13.1,14.9-20.2,22.9C113.2,129.1,122.5,141.8,132.2,154.9z M92.5,87.5c10.8,6.3,10.8,6.3,17.5-2.6
		c11.2-15,22.5-29.9,33.7-44.8c3-4,5.9-8,9.1-12.4c-3.5-2.5-6.4-4.7-9.8-7.1C125.9,43,109.3,65.1,92.5,87.5z M90.6,92.3
		c-1.7,7.4-3.2,12.4-3.9,17.5c-0.6,4.5,3,6.8,7,4.5c4.3-2.5,8.5-5.3,14.3-8.9C102.1,100.9,97.1,97.1,90.6,92.3z"/>
</g>
<g>
	<path fill="#FFFFFF" d="M241.8,105.3c0,12.2-2.3,21.7-6.9,28.3c-4.6,6.7-11.1,10-19.5,10c-4.8,0-9-1.1-12.6-3.3
		c-3.6-2.2-6.3-5.4-8.2-9.6h-0.4c0.3,1.4,0.4,5.5,0.4,12.3V171h-17.9V85.9c0-6.9-0.2-12.5-0.5-16.8h17.4c0.2,0.8,0.4,2.4,0.5,4.8
		c0.1,2.4,0.2,4.8,0.2,7.1h0.3c4-9,11.4-13.5,22-13.5c8,0,14.2,3.3,18.6,9.8C239.6,83.9,241.8,93.3,241.8,105.3z M223.2,105.3
		c0-16.4-4.7-24.6-14.2-24.6c-4.8,0-8.4,2.2-10.9,6.6c-2.5,4.4-3.8,10.6-3.8,18.5c0,7.9,1.3,14,3.8,18.3c2.5,4.3,6.1,6.5,10.8,6.5
		C218.4,130.7,223.2,122.2,223.2,105.3z"/>
	<path fill="#FFFFFF" d="M255,142.3V41.9h17.9v100.4H255z"/>
	<path fill="#FFFFFF" d="M305.8,143.6c-6.7,0-11.9-1.9-15.6-5.8c-3.7-3.9-5.6-9.3-5.6-16.3c0-7.6,2.3-13.4,7-17.3
		c4.6-4,11.4-6,20.2-6.1l14.8-0.3v-3.7c0-4.8-0.8-8.3-2.4-10.7c-1.6-2.3-4.1-3.5-7.7-3.5c-3.3,0-5.7,0.8-7.3,2.4
		c-1.5,1.6-2.5,4.3-2.9,8l-18.6-0.9c1.1-7.1,4.2-12.5,9.2-16.2c5-3.7,11.8-5.5,20.4-5.5c8.7,0,15.4,2.3,20.1,6.8
		c4.7,4.6,7.1,11,7.1,19.4v26.7c0,4.1,0.4,6.9,1.3,8.5c0.9,1.6,2.3,2.3,4.4,2.3c1.4,0,2.7-0.1,3.9-0.4v10.3c-1.1,0.3-2,0.5-2.9,0.7
		c-0.8,0.2-1.7,0.4-2.5,0.5c-0.8,0.1-1.7,0.2-2.7,0.3c-1,0.1-2.1,0.1-3.3,0.1c-4.5,0-7.8-1.2-10-3.5c-2.1-2.3-3.4-5.8-3.9-10.4h-0.4
		C323.4,138.8,315.9,143.6,305.8,143.6z M326.6,108.4l-9.2,0.1c-4.2,0.2-7.1,0.7-8.8,1.5c-1.7,0.8-3.1,2-4,3.6
		c-0.9,1.6-1.4,3.8-1.4,6.5c0,3.5,0.8,6.1,2.3,7.7c1.5,1.7,3.5,2.5,6,2.5c2.8,0,5.4-0.8,7.7-2.4c2.3-1.6,4.1-3.9,5.4-6.7
		c1.3-2.9,2-5.9,2-9.1V108.4z"/>
	<path fill="#FFFFFF" d="M405.7,142.3v-41.1c0-12.9-4.1-19.3-12.3-19.3c-4.3,0-7.8,2-10.5,5.9c-2.7,3.9-4,9-4,15.2v39.2h-17.9V85.5
		c0-3.9-0.1-7.1-0.2-9.6c-0.1-2.5-0.2-4.7-0.3-6.7h17.1c0.1,0.9,0.3,3.1,0.5,6.9c0.2,3.7,0.3,6.3,0.3,7.7h0.3
		c2.4-5.6,5.5-9.7,9.1-12.2c3.6-2.5,8-3.8,13-3.8c7.3,0,12.9,2.4,16.8,7.2c3.9,4.8,5.9,11.8,5.9,21v46.5H405.7z"/>
	<path fill="#FFFFFF" d="M436,116.2c0-6.1,1.7-11.5,5.2-16.3c3.4-4.8,8.9-9,16.4-12.7c-3.1-6.8-4.7-13.1-4.7-18.9
		c0-7,2.1-12.5,6.2-16.3c4.2-3.8,10.1-5.7,17.8-5.7c7.1,0,12.8,1.8,16.9,5.4c4.1,3.6,6.2,8.5,6.2,14.7c0,3.5-0.8,6.6-2.5,9.4
		c-1.7,2.8-4,5.4-7,7.8c-3,2.4-8.2,5.4-15.4,9c4.2,7.9,9.4,15.5,15.5,22.7c4.4-7.1,7.8-15.3,10.1-24.6l13.3,4.7
		c-2.9,10.5-7,20-12.3,28.4c3.6,3.3,7.4,4.9,11.3,4.9c2.8,0,5.2-0.4,7.4-1.1v13.7c-2.3,1-5.1,1.5-8.3,1.5c-3.6,0-7.3-0.7-11-2.1
		c-3.7-1.4-7-3.4-10-6.1c-7.2,5.8-15.3,8.7-24.1,8.7c-9.8,0-17.4-2.4-22.8-7.2C438.7,131.6,436,124.9,436,116.2z M480.4,125.6
		c-7-8.3-12.8-16.8-17.3-25.5c-7.3,3.7-10.9,8.9-10.9,15.8c0,4.5,1.4,8.1,4.1,10.8c2.8,2.7,6.5,4.1,11.3,4.1c2.8,0,5.3-0.5,7.5-1.6
		C477.3,128.1,479.1,126.9,480.4,125.6z M485.6,66.6c0-2.6-0.8-4.7-2.4-6.3c-1.6-1.6-3.8-2.4-6.6-2.4c-3.3,0-5.8,1-7.5,2.9
		c-1.7,1.9-2.6,4.5-2.6,7.7c0,3.9,1.1,8.3,3.4,13.1c4.5-2,7.6-3.7,9.6-5.1c1.9-1.4,3.4-2.9,4.5-4.5
		C485.1,70.4,485.6,68.6,485.6,66.6z"/>
	<path fill="#FFFFFF" d="M569.6,142.3h-21.4l-24.6-73.2h18.9l12,40.9c0.6,2.3,2.1,7.9,4.5,16.9c0.4-1.8,1.3-5.1,2.6-9.7
		c1.3-4.6,6.2-20.7,14.6-48.1H595L569.6,142.3z"/>
	<path fill="#FFFFFF" d="M603.4,55.9v-14h17.9v14H603.4z M603.4,142.3V69.1h17.9v73.2H603.4z"/>
	<path fill="#FFFFFF" d="M666.5,143.6c-10.4,0-18.3-3.3-23.9-9.8c-5.6-6.5-8.3-16-8.3-28.5c0-12.1,2.8-21.4,8.5-27.9
		c5.6-6.5,13.6-9.7,24-9.7c9.9,0,17.4,3.5,22.7,10.5c5.2,7,7.8,17.2,7.8,30.6v0.5H653c0,7.1,1.2,12.5,3.7,16.1s6,5.4,10.6,5.4
		c6.3,0,10.3-2.9,12-8.7l16.9,1.6C691.3,137,681.4,143.6,666.5,143.6z M666.5,79.7c-4.2,0-7.4,1.6-9.7,4.7
		c-2.3,3.1-3.5,7.5-3.6,13.1h26.7c-0.3-5.9-1.7-10.3-4-13.3C673.6,81.2,670.4,79.7,666.5,79.7z"/>
	<path fill="#FFFFFF" d="M783.9,142.3H765l-10.9-44.7c-0.5-2-1.5-7-3-15l-3.3,15.2l-11.1,44.5h-18.9L700,69.1h16.8l11.3,56l0.9-5
		l1.6-7.9l10.8-43h19.2l10.6,43c0.6,2.3,1.5,6.7,2.6,12.9l1.8-8.9l9.9-47H802L783.9,142.3z"/>
</g>
</svg>
